<svg width="1280" height="712" xmlns="http://www.w3.org/2000/svg" xmlns:xlink="http://www.w3.org/1999/xlink" overflow="hidden"><defs><clipPath id="clip0"><rect x="0" y="4" width="1280" height="712"/></clipPath><clipPath id="clip1"><rect x="0" y="5" width="1280" height="710"/></clipPath><clipPath id="clip2"><rect x="0" y="5" width="1280" height="710"/></clipPath><clipPath id="clip3"><rect x="0" y="5" width="1280" height="710"/></clipPath><clipPath id="clip4"><rect x="0" y="5" width="1280" height="710"/></clipPath></defs><g clip-path="url(#clip0)" transform="matrix(1 0 0 1 0 -4)"><g clip-path="url(#clip1)"><g clip-path="url(#clip2)"><g clip-path="url(#clip3)"><g clip-path="url(#clip4)"><path d="M51.5904 58.2175C51.5904 39.5411 66.7306 24.4009 85.4072 24.4009L1276.86 24.4009C1295.53 24.4009 1310.68 39.5411 1310.68 58.2175L1310.68 659.168C1310.68 677.844 1295.53 692.985 1276.86 692.985L85.4072 692.985C66.7306 692.985 51.5904 677.844 51.5904 659.168Z" fill="#08A1DE" fill-rule="evenodd" fill-opacity="1" transform="matrix(1 0 0 1.0004 -33.4641 -18.7132)"/><path d="M456.296 135.357C456.296 121.63 467.425 110.501 481.152 110.501L692.181 110.501C705.91 110.501 717.037 121.63 717.037 135.357L717.037 651.048C717.037 664.776 705.91 675.904 692.181 675.904L481.152 675.904C467.425 675.904 456.296 664.776 456.296 651.048Z" stroke="#D9D9D9" stroke-width="6.27451" stroke-linecap="butt" stroke-linejoin="round" stroke-miterlimit="10" stroke-opacity="1" fill="#08A1DE" fill-rule="evenodd" fill-opacity="0.65098" transform="matrix(1 0 0 1.0004 -33.4641 -18.7132)"/><path d="M437.124 179.521C437.124 168.547 446.02 159.651 456.993 159.651 467.967 159.651 476.863 168.547 476.863 179.521 476.863 190.494 467.967 199.39 456.993 199.39 446.02 199.39 437.124 190.494 437.124 179.521Z" fill="#A6A6A6" fill-rule="evenodd" fill-opacity="1" transform="matrix(1 0 0 1.0004 -33.4641 -18.7132)"/><text fill="#011F3D" fill-opacity="1" font-family="Courier,Courier_MSFontService,sans-serif" font-style="normal" font-variant="normal" font-weight="400" font-stretch="normal" font-size="28" text-anchor="start" direction="ltr" writing-mode="lr-tb" unicode-bidi="normal" text-decoration="none" transform="matrix(0.697168 0 0 0.697446 464.815 162)">/configuration<tspan fill="#011F3D" fill-opacity="1" font-family="Courier,Courier_MSFontService,sans-serif" font-style="normal" font-variant="normal" font-weight="400" font-stretch="normal" font-size="28" text-anchor="start" direction="ltr" writing-mode="lr-tb" unicode-bidi="normal" text-decoration="none" x="67" y="40.1465">/certificate</tspan><tspan fill="#011F3D" fill-opacity="1" font-family="Courier,Courier_MSFontService,sans-serif" font-style="normal" font-variant="normal" font-weight="400" font-stretch="normal" font-size="28" text-anchor="start" direction="ltr" writing-mode="lr-tb" unicode-bidi="normal" text-decoration="none" x="67" y="80.293">/edge</tspan><tspan fill="#011F3D" fill-opacity="1" font-family="Courier,Courier_MSFontService,sans-serif" font-style="normal" font-variant="normal" font-weight="400" font-stretch="normal" font-size="28" text-anchor="start" direction="ltr" writing-mode="lr-tb" unicode-bidi="normal" text-decoration="none" x="67" y="121.873">/analytics</tspan></text><path d="M437.124 333.943C437.124 323.162 446.02 314.423 456.993 314.423 467.967 314.423 476.863 323.162 476.863 333.943 476.863 344.724 467.967 353.464 456.993 353.464 446.02 353.464 437.124 344.724 437.124 333.943Z" fill="#A6A6A6" fill-rule="evenodd" fill-opacity="1" transform="matrix(1 0 0 1.0004 -33.4641 -18.7132)"/><text fill="#011F3D" fill-opacity="1" font-family="Courier,Courier_MSFontService,sans-serif" font-style="normal" font-variant="normal" font-weight="400" font-stretch="normal" font-size="28" text-anchor="start" direction="ltr" writing-mode="lr-tb" unicode-bidi="normal" text-decoration="none" transform="matrix(0.697168 0 0 0.697446 464.815 317)">/analytics<tspan fill="#011F3D" fill-opacity="1" font-family="Courier,Courier_MSFontService,sans-serif" font-style="normal" font-variant="normal" font-weight="400" font-stretch="normal" font-size="28" text-anchor="start" direction="ltr" writing-mode="lr-tb" unicode-bidi="normal" text-decoration="none" x="67" y="40.1465">/measurement</tspan><tspan fill="#011F3D" fill-opacity="1" font-family="Courier,Courier_MSFontService,sans-serif" font-style="normal" font-variant="normal" font-weight="400" font-stretch="normal" font-size="28" text-anchor="start" direction="ltr" writing-mode="lr-tb" unicode-bidi="normal" text-decoration="none" x="67" y="80.293">/series</tspan></text><path d="M437.124 444.444C437.124 433.471 446.02 424.575 456.993 424.575 467.967 424.575 476.863 433.471 476.863 444.444 476.863 455.418 467.967 464.314 456.993 464.314 446.02 464.314 437.124 455.418 437.124 444.444Z" fill="#A6A6A6" fill-rule="evenodd" fill-opacity="1" transform="matrix(1 0 0 1.0004 -33.4641 -18.7132)"/><text fill="#011F3D" fill-opacity="1" font-family="Courier,Courier_MSFontService,sans-serif" font-style="normal" font-variant="normal" font-weight="400" font-stretch="normal" font-size="28" text-anchor="start" direction="ltr" writing-mode="lr-tb" unicode-bidi="normal" text-decoration="none" transform="matrix(0.697168 0 0 0.697446 464.815 427)">/services</text><path d="M437.124 531.59C437.124 520.617 446.02 511.721 456.993 511.721 467.967 511.721 476.863 520.617 476.863 531.59 476.863 542.564 467.967 551.46 456.993 551.46 446.02 551.46 437.124 542.564 437.124 531.59Z" fill="#D9D9D9" fill-rule="evenodd" fill-opacity="1" transform="matrix(1 0 0 1.0004 -33.4641 -18.7132)"/><text fill="#011F3D" fill-opacity="1" font-family="Courier,Courier_MSFontService,sans-serif" font-style="normal" font-variant="normal" font-weight="400" font-stretch="normal" font-size="28" text-anchor="start" direction="ltr" writing-mode="lr-tb" unicode-bidi="normal" text-decoration="none" transform="matrix(0.697168 0 0 0.697446 464.815 514)">/measurements</text><path d="M437.124 599.216C437.124 588.242 446.02 579.346 456.993 579.346 467.967 579.346 476.863 588.242 476.863 599.216 476.863 610.189 467.967 619.085 456.993 619.085 446.02 619.085 437.124 610.189 437.124 599.216Z" fill="#D9D9D9" fill-rule="evenodd" fill-opacity="1" transform="matrix(1 0 0 1.0004 -33.4641 -18.7132)"/><text fill="#011F3D" fill-opacity="1" font-family="Courier,Courier_MSFontService,sans-serif" font-style="normal" font-variant="normal" font-weight="400" font-stretch="normal" font-size="28" text-anchor="start" direction="ltr" writing-mode="lr-tb" unicode-bidi="normal" text-decoration="none" transform="matrix(0.697168 0 0 0.697446 464.815 582)">/cmd</text><path d="M788.148 135.357C788.148 121.63 799.275 110.501 813.002 110.501L1024.03 110.501C1037.76 110.501 1048.89 121.63 1048.89 135.357L1048.89 651.048C1048.89 664.776 1037.76 675.904 1024.03 675.904L813.002 675.904C799.275 675.904 788.148 664.776 788.148 651.048Z" stroke="#D9D9D9" stroke-width="6.27451" stroke-linecap="butt" stroke-linejoin="round" stroke-miterlimit="10" stroke-opacity="1" fill="#08A1DE" fill-rule="evenodd" fill-opacity="0.529412" transform="matrix(1 0 0 1.0004 -33.4641 -18.7132)"/><text fill="#011F3D" fill-opacity="1" font-family="Courier,Courier_MSFontService,sans-serif" font-style="normal" font-variant="normal" font-weight="400" font-stretch="normal" font-size="40" text-anchor="start" direction="ltr" writing-mode="lr-tb" unicode-bidi="normal" text-decoration="none" transform="matrix(-1.28068e-16 -0.697446 0.697168 -1.28119e-16 986.681 641)">thin edge processes</text><path d="M116.078 135.357C116.078 121.63 127.207 110.501 140.935 110.501L351.963 110.501C365.69 110.501 376.819 121.63 376.819 135.357L376.819 651.048C376.819 664.776 365.69 675.904 351.963 675.904L140.935 675.904C127.207 675.904 116.078 664.776 116.078 651.048Z" stroke="#D9D9D9" stroke-width="6.27451" stroke-linecap="butt" stroke-linejoin="round" stroke-miterlimit="10" stroke-opacity="1" fill="#08A1DE" fill-rule="evenodd" fill-opacity="0.65098" transform="matrix(1 0 0 1.0004 -33.4641 -18.7132)"/><text fill="#011F3D" fill-opacity="1" font-family="Courier,Courier_MSFontService,sans-serif" font-style="normal" font-variant="normal" font-weight="400" font-stretch="normal" font-size="40" text-anchor="start" direction="ltr" writing-mode="lr-tb" unicode-bidi="normal" text-decoration="none" transform="matrix(-1.28068e-16 -0.697446 0.697168 -1.28119e-16 312.457 626)">web ui</text><text fill="#011F3D" fill-opacity="1" font-family="Courier,Courier_MSFontService,sans-serif" font-style="normal" font-variant="normal" font-weight="400" font-stretch="normal" font-size="28" text-anchor="start" direction="ltr" writing-mode="lr-tb" unicode-bidi="normal" text-decoration="none" transform="matrix(0.697168 0 0 0.697446 181.685 238)">analytics<tspan fill="#011F3D" fill-opacity="1" font-family="Courier,Courier_MSFontService,sans-serif" font-style="normal" font-variant="normal" font-weight="400" font-stretch="normal" font-size="28" text-anchor="start" direction="ltr" writing-mode="lr-tb" unicode-bidi="normal" text-decoration="none" x="0.100461" y="176.358">edge</tspan><tspan fill="#011F3D" fill-opacity="1" font-family="Courier,Courier_MSFontService,sans-serif" font-style="normal" font-variant="normal" font-weight="400" font-stretch="normal" font-size="28" text-anchor="start" direction="ltr" writing-mode="lr-tb" unicode-bidi="normal" text-decoration="none" x="50.3505" y="216.504">setup</tspan><tspan fill="#011F3D" fill-opacity="1" font-family="Courier,Courier_MSFontService,sans-serif" font-style="normal" font-variant="normal" font-weight="400" font-stretch="normal" font-size="28" text-anchor="start" direction="ltr" writing-mode="lr-tb" unicode-bidi="normal" text-decoration="none" x="50.3505" y="255.217">control</tspan><tspan fill="#011F3D" fill-opacity="1" font-family="Courier,Courier_MSFontService,sans-serif" font-style="normal" font-variant="normal" font-weight="400" font-stretch="normal" font-size="28" text-anchor="start" direction="ltr" writing-mode="lr-tb" unicode-bidi="normal" text-decoration="none" x="0" y="371.355">cloud</tspan></text><text fill="#011F3D" fill-opacity="1" font-family="Courier,Courier_MSFontService,sans-serif" font-style="normal" font-variant="normal" font-weight="400" font-stretch="normal" font-size="40" text-anchor="start" direction="ltr" writing-mode="lr-tb" unicode-bidi="normal" text-decoration="none" transform="matrix(-1.28068e-16 -0.697446 0.697168 -1.28119e-16 662.257 632)">node</text><path d="M1068.76 594.684C1068.76 583.903 1077.65 575.163 1088.63 575.163 1099.6 575.163 1108.5 583.903 1108.5 594.684 1108.5 605.465 1099.6 614.205 1088.63 614.205 1077.65 614.205 1068.76 605.465 1068.76 594.684Z" fill="#A6A6A6" fill-rule="evenodd" fill-opacity="1" transform="matrix(1 0 0 1.0004 -33.4641 -18.7132)"/><text fill="#011F3D" fill-opacity="1" font-family="Courier,Courier_MSFontService,sans-serif" font-style="normal" font-variant="normal" font-weight="400" font-stretch="normal" font-size="28" text-anchor="start" direction="ltr" writing-mode="lr-tb" unicode-bidi="normal" text-decoration="none" transform="matrix(0.697168 0 0 0.697446 1090.82 580)">rest endpoint</text><path d="M1068.76 640C1068.76 629.219 1077.65 620.479 1088.63 620.479 1099.6 620.479 1108.5 629.219 1108.5 640 1108.5 650.781 1099.6 659.521 1088.63 659.521 1077.65 659.521 1068.76 650.781 1068.76 640Z" fill="#D9D9D9" fill-rule="evenodd" fill-opacity="1" transform="matrix(1 0 0 1.0004 -33.4641 -18.7132)"/><text fill="#011F3D" fill-opacity="1" font-family="Courier,Courier_MSFontService,sans-serif" font-style="normal" font-variant="normal" font-weight="400" font-stretch="normal" font-size="28" text-anchor="start" direction="ltr" writing-mode="lr-tb" unicode-bidi="normal" text-decoration="none" transform="matrix(0.697168 0 0 0.697446 1092.71 626)">socket endpoint</text><path d="M1068.76 528.453 1108.5 528.453 1108.5 568.192 1068.76 568.192Z" fill="#005371" fill-rule="nonzero" fill-opacity="1" transform="matrix(1 0 0 1.0004 -33.4641 -18.7132)"/><text fill="#011F3D" fill-opacity="1" font-family="Courier,Courier_MSFontService,sans-serif" font-style="normal" font-variant="normal" font-weight="400" font-stretch="normal" font-size="28" text-anchor="start" direction="ltr" writing-mode="lr-tb" unicode-bidi="normal" text-decoration="none" transform="matrix(0.697168 0 0 0.697446 1090.82 535)">process<tspan fill="#011F3D" fill-opacity="1" font-family="Courier,Courier_MSFontService,sans-serif" font-style="normal" font-variant="normal" font-weight="400" font-stretch="normal" font-size="28" text-anchor="start" direction="ltr" writing-mode="lr-tb" unicode-bidi="normal" text-decoration="none" x="-0.00612831" y="-67.3887">web </tspan><tspan fill="#011F3D" fill-opacity="1" font-family="Courier,Courier_MSFontService,sans-serif" font-style="normal" font-variant="normal" font-weight="400" font-stretch="normal" font-size="28" text-anchor="start" direction="ltr" writing-mode="lr-tb" unicode-bidi="normal" text-decoration="none" x="66.9938" y="-67.3887">ui</tspan></text><path d="M1068.76 487.669C1068.76 484.011 1071.72 481.046 1075.38 481.046L1101.87 481.046C1105.53 481.046 1108.5 484.011 1108.5 487.669L1108.5 514.161C1108.5 517.819 1105.53 520.784 1101.87 520.784L1075.38 520.784C1071.72 520.784 1068.76 517.819 1068.76 514.161Z" fill="#005371" fill-rule="evenodd" fill-opacity="1" transform="matrix(1 0 0 1.0004 -33.4641 -18.7132)"/><path d="M815.686 225.185 879.129 225.185 879.129 287.93 815.686 287.93Z" stroke="#D9D9D9" stroke-width="1.39434" stroke-linecap="butt" stroke-linejoin="round" stroke-miterlimit="10" stroke-opacity="1" fill="#005371" fill-rule="nonzero" fill-opacity="1" transform="matrix(1 0 0 1.0004 -33.4641 -18.7132)"/><text fill="#011F3D" fill-opacity="1" font-family="Courier,Courier_MSFontService,sans-serif" font-style="normal" font-variant="normal" font-weight="400" font-stretch="normal" font-size="28" text-anchor="start" direction="ltr" writing-mode="lr-tb" unicode-bidi="normal" text-decoration="none" transform="matrix(0.697168 0 0 0.697446 873.237 244)">mapper</text><path d="M815.686 345.098 879.129 345.098 879.129 407.843 815.686 407.843Z" stroke="#D9D9D9" stroke-width="1.39434" stroke-linecap="butt" stroke-linejoin="round" stroke-miterlimit="10" stroke-opacity="1" fill="#005371" fill-rule="nonzero" fill-opacity="1" transform="matrix(1 0 0 1.0004 -33.4641 -18.7132)"/><text fill="#011F3D" fill-opacity="1" font-family="Courier,Courier_MSFontService,sans-serif" font-style="normal" font-variant="normal" font-weight="400" font-stretch="normal" font-size="28" text-anchor="start" direction="ltr" writing-mode="lr-tb" unicode-bidi="normal" text-decoration="none" transform="matrix(0.697168 0 0 0.697446 873.237 364)">agent</text><path d="M815.686 464.314 879.129 464.314 879.129 527.756 815.686 527.756Z" stroke="#D9D9D9" stroke-width="1.39434" stroke-linecap="butt" stroke-linejoin="round" stroke-miterlimit="10" stroke-opacity="1" fill="#005371" fill-rule="nonzero" fill-opacity="1" transform="matrix(1 0 0 1.0004 -33.4641 -18.7132)"/><text fill="#011F3D" fill-opacity="1" font-family="Courier,Courier_MSFontService,sans-serif" font-style="normal" font-variant="normal" font-weight="400" font-stretch="normal" font-size="28" text-anchor="start" direction="ltr" writing-mode="lr-tb" unicode-bidi="normal" text-decoration="none" transform="matrix(0.697168 0 0 0.697446 874.52 484)">mosquitto</text><path d="M139.434 235.643C139.434 229.867 144.116 225.185 149.891 225.185L192.418 225.185C198.194 225.185 202.876 229.867 202.876 235.643L202.876 277.473C202.876 283.248 198.194 287.93 192.418 287.93L149.891 287.93C144.116 287.93 139.434 283.248 139.434 277.473Z" stroke="#D9D9D9" stroke-width="1.39434" stroke-linecap="butt" stroke-linejoin="round" stroke-miterlimit="10" stroke-opacity="1" fill="#005371" fill-rule="evenodd" fill-opacity="1" transform="matrix(1 0 0 1.0004 -33.4641 -18.7132)"/><path d="M139.434 358.344C139.434 352.569 144.116 347.887 149.891 347.887L191.721 347.887C197.496 347.887 202.179 352.569 202.179 358.344L202.179 400.174C202.179 405.95 197.496 410.632 191.721 410.632L149.891 410.632C144.116 410.632 139.434 405.95 139.434 400.174Z" stroke="#D9D9D9" stroke-width="1.39434" stroke-linecap="butt" stroke-linejoin="round" stroke-miterlimit="10" stroke-opacity="1" fill="#005371" fill-rule="evenodd" fill-opacity="1" transform="matrix(1 0 0 1.0004 -33.4641 -18.7132)"/><path d="M139.434 489.528C139.434 483.688 144.167 478.954 150.007 478.954L192.302 478.954C198.142 478.954 202.876 483.688 202.876 489.528L202.876 531.823C202.876 537.663 198.142 542.396 192.302 542.396L150.007 542.396C144.167 542.396 139.434 537.663 139.434 531.823Z" stroke="#D9D9D9" stroke-width="1.39434" stroke-linecap="butt" stroke-linejoin="round" stroke-miterlimit="10" stroke-opacity="1" fill="#005371" fill-rule="evenodd" fill-opacity="1" transform="matrix(1 0 0 1.0004 -33.4641 -18.7132)"/><text fill="#011F3D" fill-opacity="1" font-family="Courier,Courier_MSFontService,sans-serif" font-style="normal" font-variant="normal" font-weight="400" font-stretch="normal" font-size="40" text-anchor="start" direction="ltr" writing-mode="lr-tb" unicode-bidi="normal" text-decoration="none" transform="matrix(0.697168 0 0 0.697446 48.6163 57)">tedge</text><path d="M376.122 177.255 435.865 177.255 435.865 181.786 376.122 181.786ZM376.122 186.318C372.368 186.318 369.325 183.275 369.325 179.521 369.325 175.766 372.368 172.723 376.122 172.723 379.876 172.723 382.919 175.766 382.919 179.521 382.919 183.275 379.876 186.318 376.122 186.318Z" fill="#005371" fill-rule="nonzero" fill-opacity="1" transform="matrix(1 0 0 1.0004 -33.4641 -18.7132)"/><path d="M376.122 332.026 435.865 332.026 435.865 336.558 376.122 336.558ZM376.122 341.089C372.368 341.089 369.325 338.046 369.325 334.292 369.325 330.538 372.368 327.495 376.122 327.495 379.876 327.495 382.919 330.538 382.919 334.292 382.919 338.046 379.876 341.089 376.122 341.089Z" fill="#005371" fill-rule="nonzero" fill-opacity="1" transform="matrix(1 0 0 1.0004 -33.4641 -18.7132)"/><path d="M376.122 442.876 435.865 442.876 435.865 447.407 376.122 447.407ZM376.122 451.939C372.368 451.939 369.325 448.896 369.325 445.142 369.325 441.387 372.368 438.344 376.122 438.344 379.876 438.344 382.919 441.387 382.919 445.142 382.919 448.896 379.876 451.939 376.122 451.939Z" fill="#005371" fill-rule="nonzero" fill-opacity="1" transform="matrix(1 0 0 1.0004 -33.4641 -18.7132)"/><path d="M376.122 526.536 435.865 526.536 435.865 531.068 376.122 531.068ZM376.122 535.599C372.368 535.599 369.325 532.556 369.325 528.802 369.325 525.047 372.368 522.004 376.122 522.004 379.876 522.004 382.919 525.047 382.919 528.802 382.919 532.556 379.876 535.599 376.122 535.599Z" fill="#005371" fill-rule="nonzero" fill-opacity="1" transform="matrix(1 0 0 1.0004 -33.4641 -18.7132)"/><path d="M376.122 596.253 435.865 596.253 435.865 600.784 376.122 600.784ZM376.122 605.316C372.368 605.316 369.325 602.273 369.325 598.518 369.325 594.764 372.368 591.721 376.122 591.721 379.876 591.721 382.919 594.764 382.919 598.518 382.919 602.273 379.876 605.316 376.122 605.316Z" fill="#005371" fill-rule="nonzero" fill-opacity="1" transform="matrix(1 0 0 1.0004 -33.4641 -18.7132)"/><path d="M719.129 387.8 790.275 387.8 790.275 392.331 719.129 392.331ZM719.129 396.863C715.378 396.863 712.331 393.82 712.331 390.065 712.331 386.311 715.378 383.268 719.129 383.268 722.879 383.268 725.926 386.311 725.926 390.065 725.926 393.82 722.879 396.863 719.129 396.863Z" fill="#005371" fill-rule="nonzero" fill-opacity="1" transform="matrix(1 0 0 1.0004 -33.4641 -18.7132)"/></g></g></g></g></g></svg>