<svg width="1280" height="685" xmlns="http://www.w3.org/2000/svg" xmlns:xlink="http://www.w3.org/1999/xlink" overflow="hidden"><defs><clipPath id="clip0"><rect x="0" y="17" width="1280" height="685"/></clipPath><clipPath id="clip1"><rect x="0" y="18" width="1280" height="684"/></clipPath><clipPath id="clip2"><rect x="0" y="18" width="1280" height="684"/></clipPath><clipPath id="clip3"><rect x="0" y="18" width="1280" height="684"/></clipPath><clipPath id="clip4"><rect x="0" y="18" width="1280" height="684"/></clipPath></defs><g clip-path="url(#clip0)" transform="matrix(1 0 0 1 0 -17)"><g clip-path="url(#clip1)"><g clip-path="url(#clip2)"><g clip-path="url(#clip3)"><g clip-path="url(#clip4)"><path d="M29.188 43.5967C29.188 33.2799 37.5513 24.9166 47.8681 24.9166L1289.8 24.9166C1300.11 24.9166 1308.48 33.2799 1308.48 43.5967L1308.48 688.239C1308.48 698.555 1300.11 706.919 1289.8 706.919L47.8681 706.919C37.5513 706.919 29.188 698.555 29.188 688.239Z" fill="#F2F2F2" fill-rule="evenodd" fill-opacity="1" transform="matrix(1 0 0 1.00084 -28.4761 -6.225)"/><path d="M808.721 427.253C808.721 417.755 816.424 410.056 825.92 410.056L1057.77 410.056C1067.27 410.056 1074.97 417.755 1074.97 427.253L1074.97 635.617C1074.97 645.115 1067.27 652.814 1057.77 652.814L825.92 652.814C816.424 652.814 808.721 645.115 808.721 635.617Z" fill="#08A1DE" fill-rule="evenodd" fill-opacity="1" transform="matrix(1 0 0 1.00084 -28.4761 -6.225)"/><path d="M808.721 103.08C808.721 94.5107 815.669 87.564 824.233 87.564L1059.46 87.564C1068.02 87.564 1074.97 94.5107 1074.97 103.08L1074.97 328.333C1074.97 336.902 1068.02 343.849 1059.46 343.849L824.233 343.849C815.669 343.849 808.721 336.902 808.721 328.333Z" fill="#08A1DE" fill-rule="evenodd" fill-opacity="1" transform="matrix(1 0 0 1.00084 -28.4761 -6.225)"/><text fill="#011F3D" fill-opacity="1" font-family="Courier,Courier_MSFontService,sans-serif" font-style="normal" font-variant="normal" font-weight="400" font-stretch="normal" font-size="40" text-anchor="start" direction="ltr" writing-mode="lr-tb" unicode-bidi="normal" text-decoration="none" transform="matrix(0.711902 0 0 0.7125 794.262 125)">mqtt_collector</text><path d="M255.573 100.039C255.573 90.0037 263.708 81.8687 273.743 81.8687L677.358 81.8687C687.393 81.8687 695.528 90.0037 695.528 100.039L695.528 641.051C695.528 651.086 687.393 659.221 677.358 659.221L273.743 659.221C263.708 659.221 255.573 651.086 255.573 641.051Z" fill="#08A1DE" fill-rule="evenodd" fill-opacity="1" transform="matrix(1 0 0 1.00084 -28.4761 -6.225)"/><text fill="#011F3D" fill-opacity="1" font-family="Courier,Courier_MSFontService,sans-serif" font-style="normal" font-variant="normal" font-weight="400" font-stretch="normal" font-size="40" text-anchor="start" direction="ltr" writing-mode="lr-tb" unicode-bidi="normal" text-decoration="none" transform="matrix(0.711902 0 0 0.7125 246.045 118)">tedge-ui</text><path d="M344.561 200.044 420.734 200.044 420.734 276.93 344.561 276.93Z" stroke="#D9D9D9" stroke-width="1.4238" stroke-linecap="butt" stroke-linejoin="round" stroke-miterlimit="10" stroke-opacity="1" fill="#005371" fill-rule="nonzero" fill-opacity="1" transform="matrix(1 0 0 1.00084 -28.4761 -6.225)"/><text fill="#011F3D" fill-opacity="1" font-family="Courier,Courier_MSFontService,sans-serif" font-style="normal" font-variant="normal" font-weight="400" font-stretch="normal" font-size="40" text-anchor="start" direction="ltr" writing-mode="lr-tb" unicode-bidi="normal" text-decoration="none" transform="matrix(0.711902 0 0 0.7125 791.778 445)">mongodb</text><path d="M2.3137 11.5684 2.3138 66.2243-2.31357 66.2243-2.31366 11.5684ZM-6.94102 13.8821 0 0 6.94107 13.8821Z" fill="#005371" fill-rule="nonzero" fill-opacity="1" transform="matrix(1 0 0 -1.00084 913.726 404.548)"/><path d="M582.692 223.003 797.167 223.003 797.167 227.631 582.692 227.631ZM794.853 218.376 808.735 225.317 794.853 232.258Z" fill="#005371" fill-rule="nonzero" fill-opacity="1" transform="matrix(1 0 0 1.00084 -28.4761 -6.225)"/><path d="M6.69329e-07-2.31368 375.966-2.31358 375.966 2.31379-6.69329e-07 2.31368ZM373.652-6.94094 387.535 0.00011211 373.652 6.94115Z" fill="#005371" fill-rule="nonzero" fill-opacity="1" transform="matrix(-1 0 0 1.00084 780.145 544.181)"/><path d="M576.641 205.028 615.083 205.028 615.083 474.839 576.641 474.839Z" stroke="#D9D9D9" stroke-width="1.4238" stroke-linecap="butt" stroke-linejoin="round" stroke-miterlimit="10" stroke-opacity="1" fill="#005371" fill-rule="nonzero" fill-opacity="1" transform="matrix(1 0 0 1.00084 -28.4761 -6.225)"/><text fill="#011F3D" fill-opacity="1" font-family="Courier,Courier_MSFontService,sans-serif" font-style="normal" font-variant="normal" font-weight="400" font-stretch="normal" font-size="28" text-anchor="start" direction="ltr" writing-mode="lr-tb" unicode-bidi="normal" text-decoration="none" transform="matrix(-1.30774e-16 -0.7125 0.711902 -1.30884e-16 608.673 466)">mosquitto</text><path d="M432.659 236.529 564.976 236.529 564.976 241.157 432.659 241.157ZM434.972 245.784 421.09 238.843 434.972 231.902ZM562.662 231.902 576.544 238.843 562.662 245.784Z" fill="#005371" fill-rule="nonzero" fill-opacity="1" transform="matrix(1 0 0 1.00084 -28.4761 -6.225)"/><text fill="#011F3D" fill-opacity="1" font-family="Courier,Courier_MSFontService,sans-serif" font-style="normal" font-variant="normal" font-weight="400" font-stretch="normal" font-size="28" text-anchor="start" direction="ltr" writing-mode="lr-tb" unicode-bidi="normal" text-decoration="none" transform="matrix(0.711902 0 0 0.7125 259.99 181)">tedge-mapper<tspan fill="#011F3D" fill-opacity="1" font-family="Courier,Courier_MSFontService,sans-serif" font-style="normal" font-variant="normal" font-weight="400" font-stretch="normal" font-size="28" text-anchor="start" direction="ltr" writing-mode="lr-tb" unicode-bidi="normal" text-decoration="none" x="201" y="0">-</tspan><tspan fill="#011F3D" fill-opacity="1" font-family="Courier,Courier_MSFontService,sans-serif" font-style="normal" font-variant="normal" font-weight="400" font-stretch="normal" font-size="28" text-anchor="start" direction="ltr" writing-mode="lr-tb" unicode-bidi="normal" text-decoration="none" x="218" y="0">c8y</tspan></text><path d="M344.561 511.146 420.734 511.146 420.734 588.031 344.561 588.031Z" stroke="#D9D9D9" stroke-width="1.4238" stroke-linecap="butt" stroke-linejoin="round" stroke-miterlimit="10" stroke-opacity="1" fill="#005371" fill-rule="nonzero" fill-opacity="1" transform="matrix(1 0 0 1.00084 -28.4761 -6.225)"/><text fill="#011F3D" fill-opacity="1" font-family="Courier,Courier_MSFontService,sans-serif" font-style="normal" font-variant="normal" font-weight="400" font-stretch="normal" font-size="28" text-anchor="start" direction="ltr" writing-mode="lr-tb" unicode-bidi="normal" text-decoration="none" transform="matrix(0.711902 0 0 0.7125 671.052 204)">mqtt<tspan fill="#011F3D" fill-opacity="1" font-family="Courier,Courier_MSFontService,sans-serif" font-style="normal" font-variant="normal" font-weight="400" font-stretch="normal" font-size="28" text-anchor="start" direction="ltr" writing-mode="lr-tb" unicode-bidi="normal" text-decoration="none" x="-119.011" y="457.544">socket</tspan><tspan fill="#011F3D" fill-opacity="1" font-family="Courier,Courier_MSFontService,sans-serif" font-style="normal" font-variant="normal" font-weight="400" font-stretch="normal" font-size="28" text-anchor="start" direction="ltr" writing-mode="lr-tb" unicode-bidi="normal" text-decoration="none" x="-475.879" y="409.825">node</tspan></text><path d="M344.561 328.187 420.734 328.187 420.734 405.072 344.561 405.072Z" stroke="#D9D9D9" stroke-width="1.4238" stroke-linecap="butt" stroke-linejoin="round" stroke-miterlimit="10" stroke-opacity="1" fill="#005371" fill-rule="nonzero" fill-opacity="1" transform="matrix(1 0 0 1.00084 -28.4761 -6.225)"/><path d="M434.794 364.672 565.079 364.672 565.079 369.299 434.794 369.299ZM437.108 373.927 423.226 366.986 437.108 360.044ZM562.766 360.044 576.648 366.986 562.766 373.927Z" fill="#005371" fill-rule="nonzero" fill-opacity="1" transform="matrix(1 0 0 1.00084 -28.4761 -6.225)"/><text fill="#011F3D" fill-opacity="1" font-family="Courier,Courier_MSFontService,sans-serif" font-style="normal" font-variant="normal" font-weight="400" font-stretch="normal" font-size="28" text-anchor="start" direction="ltr" writing-mode="lr-tb" unicode-bidi="normal" text-decoration="none" transform="matrix(0.711902 0 0 0.7125 243.234 309)">tedge-mapper-collectd</text><path d="M895.573 180.111 971.746 180.111 971.746 256.997 895.573 256.997Z" stroke="#D9D9D9" stroke-width="1.4238" stroke-linecap="butt" stroke-linejoin="round" stroke-miterlimit="10" stroke-opacity="1" fill="#005371" fill-rule="nonzero" fill-opacity="1" transform="matrix(1 0 0 1.00084 -28.4761 -6.225)"/><path d="M892.013 505.006C892.013 510.264 913.684 514.527 940.423 514.527 967.162 514.527 988.832 510.264 988.832 505.006L988.832 562.136C988.832 567.395 967.162 571.657 940.423 571.657 913.684 571.657 892.013 567.395 892.013 562.136Z" fill="#005371" fill-rule="evenodd" fill-opacity="1" transform="matrix(1 0 0 1.00084 -28.4761 -6.225)"/><path d="M892.013 505.006C892.013 499.747 913.684 495.484 940.423 495.484 967.162 495.484 988.832 499.747 988.832 505.006 988.832 510.264 967.162 514.527 940.423 514.527 913.684 514.527 892.013 510.264 892.013 505.006Z" fill="#6698AA" fill-rule="evenodd" fill-opacity="1" transform="matrix(1 0 0 1.00084 -28.4761 -6.225)"/><path d="M988.832 505.006C988.832 510.264 967.162 514.527 940.423 514.527 913.684 514.527 892.013 510.264 892.013 505.006 892.013 499.747 913.684 495.484 940.423 495.484 967.162 495.484 988.832 499.747 988.832 505.006L988.832 562.136C988.832 567.395 967.162 571.657 940.423 571.657 913.684 571.657 892.013 567.395 892.013 562.136L892.013 505.006" stroke="#D9D9D9" stroke-width="1.4238" stroke-linecap="butt" stroke-linejoin="round" stroke-miterlimit="10" stroke-opacity="1" fill="none" fill-rule="evenodd" transform="matrix(1 0 0 1.00084 -28.4761 -6.225)"/></g></g></g></g></g></svg>