<svg viewBox="0 0 348 114" style="
	max-width: 360px;
	margin: 1rem auto;
	display: block;
	pointer-events: none;
	position: relative;
">
  <title>thin-edge-logo</title>
  <g id="Page-1" stroke="none" stroke-width="1" fill="none" fill-rule="evenodd">
    <g id="thin-edge-logo" transform="translate(0.000000, 0.419812)">
      <path d="M24.2967711,86.5801881 C29.6508713,86.5801881 34.0222568,85.0599178 37.4109278,82.0193773 L37.4109278,82.0193773 L34.5644442,75.2288367 C32.0568277,77.7288367 29.1764573,78.9788367 25.9233332,78.9788367 C23.6190369,78.9788367 21.7722112,78.3538367 20.3828561,77.1038367 C18.993501,75.8538367 18.2988234,74.0126205 18.2988234,71.5801881 L18.2988234,71.5801881 L18.2988234,41.8842421 L37.1059475,41.8842421 L37.1059475,34.8909989 L18.2988234,34.8909989 L18.2988234,20.499107 L10.166013,22.7288367 L10.166013,34.8909989 L0,34.8909989 L0,41.8842421 L10.166013,41.8842421 L10.166013,72.999107 C10.2337864,77.5937016 11.5723115,81.0058637 14.1815881,83.2355935 C16.7908648,85.4653232 20.1625925,86.5801881 24.2967711,86.5801881 Z M45.5996717,85.5666745 L45.5996717,58.7085664 C45.5996717,54.6545124 46.3621227,51.2930259 47.8870247,48.624107 C49.4119266,45.9551881 51.3773558,44.0126205 53.7833122,42.7964043 C56.1892686,41.5801881 58.7138285,40.97208 61.3569919,40.97208 C65.1523034,40.97208 68.185164,42.1545124 70.4555735,44.5193773 C72.7259831,46.8842421 73.8611879,50.7018097 73.8611879,55.97208 L73.8611879,55.97208 L73.8611879,85.5666745 L81.9939983,85.5666745 L81.9939983,53.1342421 C81.9939983,46.9180259 80.1302292,42.1545124 76.4026911,38.8437016 C72.675153,35.5328908 67.9310136,33.8774854 62.1702729,33.8774854 C58.5782817,33.8774854 55.3421009,34.5869448 52.4617305,36.0058637 C49.5813602,37.4247827 47.2940072,39.5869448 45.5996717,42.4923502 L45.5996717,42.4923502 L45.5996717,11.5801881 L37.4668613,11.5801881 L37.4668613,85.5666745 L45.5996717,85.5666745 Z M93.0292258,25.1612691 C94.8591081,25.1612691 96.33318,24.6038367 97.4514415,23.4889718 C98.5697029,22.374107 99.1288336,20.9045124 99.1288336,19.0801881 C99.1288336,17.2558637 98.5697029,15.7862691 97.4514415,14.6714043 C96.33318,13.5565394 94.8591081,12.999107 93.0292258,12.999107 C91.1993435,12.999107 89.7252716,13.5565394 88.6070102,14.6714043 C87.4887487,15.7862691 86.929618,17.2558637 86.929618,19.0801881 C86.929618,20.9045124 87.4887487,22.374107 88.6070102,23.4889718 C89.7252716,24.6038367 91.1993435,25.1612691 93.0292258,25.1612691 Z M97.095631,34.8909989 L97.095631,85.5666745 L88.9628206,85.5666745 L88.9628206,34.8909989 L97.095631,34.8909989 Z M129.276166,33.8774854 C135.036906,33.8774854 139.781046,35.5328908 143.508584,38.8437016 C145.465436,40.5817836 146.908642,42.7202237 147.838202,45.2590219 L140.966754,59.0554854 L140.967081,55.97208 L140.963755,55.4822481 C140.895022,50.4646304 139.760925,46.8103401 137.561466,44.5193773 C135.291057,42.1545124 132.258196,40.97208 128.462885,40.97208 C125.751948,40.97208 123.210444,41.5632962 120.838375,42.7457286 C118.466305,43.928161 116.517819,45.8538367 114.992917,48.5227556 C113.534315,51.0756346 112.773306,54.2621671 112.709888,58.082353 L112.705564,58.6072151 L112.705564,85.5666745 L104.572754,85.5666745 L104.572754,34.8909989 L111.688963,34.8909989 L112.197264,42.7964043 L112.421915,42.4043144 C114.096137,39.5620061 116.359436,37.4460811 119.211813,36.0565394 C122.193843,34.6038367 125.548627,33.8774854 129.276166,33.8774854 Z" id="thin" fill="#032858" fill-rule="nonzero"></path>
      <path d="M178.472817,40.8067253 C182.852058,45.3022305 185.041679,51.606078 185.041679,59.7182679 C185.041679,61.8525464 184.895323,63.6370902 184.602612,65.0718993 L184.532465,65.3968008 L149.804065,65.3968008 L149.878473,65.8064357 C150.450256,68.7752825 151.596646,70.9709921 153.317642,72.3935645 C155.116865,73.8807994 157.510171,74.6244168 160.49756,74.6244168 C163.009683,74.6244168 165.063513,74.1512057 166.659051,73.2047835 C168.160733,72.3140333 169.196311,71.0340476 169.765785,69.3648265 L169.867099,69.0472862 L183.921408,73.5089907 L183.779241,73.924466 C182.315714,78.047037 179.596373,81.2041224 175.621218,83.395722 C171.513558,85.660375 166.472339,86.7927015 160.49756,86.7927015 C151.839684,86.7927015 145.160081,84.6148031 140.45875,80.2590063 L152.506,56.0672848 L168.848671,56.0677825 C168.033929,49.4428274 164.910749,46.1303499 159.479132,46.1303499 C158.732382,46.1303499 158.026942,46.1914237 157.362811,46.3135714 L163.37903,34.2362848 C169.763378,34.8407497 174.79464,37.0308965 178.472817,40.8067253 Z M207.586161,86.7927015 C211.388292,86.7927015 214.732132,85.8462794 217.617678,83.9534351 C220.503224,82.0605908 222.692845,79.4579299 224.18654,76.1454524 L224.18654,76.1454524 L224.797597,85.7786778 L240.379547,85.7786778 L240.379547,13.5801881 L223.066269,13.5801881 L223.066269,43.5952905 C221.572574,40.6208209 219.535718,38.2885663 216.9557,36.5985268 C214.375682,34.9084872 211.28645,34.0634675 207.688004,34.0634675 C201.102168,34.0634675 195.942132,36.395722 192.207896,41.0602312 C188.473659,45.7247404 186.606541,52.2482931 186.606541,60.6308892 C186.606541,68.8782823 188.456685,75.3004326 192.156974,79.8973402 C195.857263,84.4942478 201.000325,86.7927015 207.586161,86.7927015 Z M213.594887,74.1174049 C210.539602,74.1174049 208.180244,73.0019788 206.516811,70.7711266 C204.853378,68.5402744 204.021662,65.0925937 204.021662,60.4280845 C204.021662,55.7635753 204.853378,52.3158946 206.516811,50.0850424 C208.180244,47.8541902 210.539602,46.7387641 213.594887,46.7387641 C216.37859,46.7387641 218.602159,47.7527878 220.265591,49.7808353 C221.929024,51.8088828 222.862583,54.68195 223.066269,58.400037 L223.066269,58.400037 L223.066269,62.456132 C222.862583,66.2418206 221.929024,69.1317882 220.265591,71.1260349 C218.602159,73.1202816 216.37859,74.1174049 213.594887,74.1174049 Z M268.932755,107.580188 C277.759133,107.580188 284.735366,106.042252 289.861454,102.96638 C294.987542,99.8905081 297.550587,95.4795049 297.550587,89.7333704 C297.550587,84.7308533 295.938075,80.9451647 292.713053,78.3763046 C289.48803,75.8074444 284.922077,74.5230144 279.015194,74.5230144 L279.015194,74.5230144 L261.701915,74.5230144 C258.171365,74.5230144 256.406089,73.3737875 256.406089,71.0753337 C256.406089,69.250091 257.458465,68.0670633 259.563216,67.5262506 C262.414815,68.1346649 265.673785,68.438872 269.340127,68.438872 C277.215971,68.438872 283.32654,66.9516372 287.671833,63.9771676 C292.017127,61.002698 294.189774,56.7775991 294.189774,51.3018709 C294.189774,44.9473222 291.338175,40.282813 285.634977,37.3083434 C286.313929,35.8887102 287.417226,34.7732841 288.944869,33.9620651 C290.472511,33.1508461 292.390551,32.7452366 294.698988,32.7452366 C295.242149,32.7452366 296.192682,32.8128382 297.550587,32.9480414 L297.550587,32.9480414 L295.615573,21.4895732 L293.986088,21.3881708 C289.776585,21.3881708 286.483667,22.6726009 284.107335,25.241461 C281.731003,27.8103211 280.20336,31.1227986 279.524408,35.1788936 C276.401229,34.4352762 273.006468,34.0634675 269.340127,34.0634675 C261.464282,34.0634675 255.353713,35.5676027 251.00842,38.5758731 C246.663126,41.5841435 244.49048,45.8261428 244.49048,51.3018709 C244.49048,57.5888181 247.274183,62.2195264 252.841591,65.193996 C250.261573,66.0728166 248.224716,67.4248483 246.731022,69.250091 C245.237327,71.0753337 244.49048,73.1709827 244.49048,75.5370381 C244.49048,80.3367505 247.104445,83.8520327 252.332376,86.0828849 C249.141302,86.8265023 246.764969,88.0433308 245.203379,89.7333704 C243.64179,91.4234099 242.860995,93.3838558 242.860995,95.614708 C242.860995,99.4003966 244.98272,102.341065 249.226171,104.436714 C253.469621,106.532364 260.038483,107.580188 268.932755,107.580188 Z M269.340127,58.6028418 C267.099585,58.6028418 265.283388,57.9437264 263.891536,56.6254955 C262.499684,55.3072647 261.803758,53.5327231 261.803758,51.3018709 C261.803758,49.0710187 262.499684,47.2795768 263.891536,45.9275451 C265.283388,44.5755135 267.099585,43.8994977 269.340127,43.8994977 C271.580669,43.8994977 273.396865,44.5755135 274.788717,45.9275451 C276.180569,47.2795768 276.876495,49.0710187 276.876495,51.3018709 C276.876495,53.5327231 276.180569,55.3072647 274.788717,56.6254955 C273.396865,57.9437264 271.580669,58.6028418 269.340127,58.6028418 Z M270.154869,96.425927 C260.717435,96.425927 255.998718,94.8710906 255.998718,91.7614178 C255.998718,90.5445894 256.592801,89.6488684 257.780967,89.0742549 C258.969133,88.4996415 260.955068,88.2123348 263.738772,88.2123348 L263.738772,88.2123348 L277.691238,88.2123348 C279.931779,88.2123348 281.527317,88.4827411 282.47785,89.0235538 C283.428383,89.5643664 283.903649,90.3755854 283.903649,91.4572107 C283.903649,92.9444455 282.732457,94.1443736 280.390072,95.056995 C278.047687,95.9696163 274.635953,96.425927 270.154869,96.425927 Z M323.455881,86.7927015 C329.43066,86.7927015 334.471879,85.660375 338.57954,83.395722 C342.6872,81.131069 345.45393,77.8354919 346.879729,73.5089907 L346.879729,73.5089907 L332.82542,69.0472862 C332.282259,70.8725289 331.212909,72.2583614 329.617372,73.2047835 C328.021834,74.1512057 325.968004,74.6244168 323.455881,74.6244168 C320.468492,74.6244168 318.075186,73.8807994 316.275963,72.3935645 C314.47674,70.9063297 313.305547,68.5740752 312.762386,65.3968008 L312.762386,65.3968008 L347.490786,65.3968008 C347.830262,63.909566 348,62.0167217 348,59.7182679 C348,51.606078 345.810379,45.3022305 341.431138,40.8067253 C337.051897,36.3112201 330.754617,34.0634675 322.539296,34.0634675 C314.052395,34.0634675 307.500507,36.3619213 302.883633,40.9588288 C298.266758,45.5557364 295.958321,52.0454883 295.958321,60.4280845 C295.958321,68.8106807 298.31768,75.3004326 303.036397,79.8973402 C307.755114,84.4942478 314.561609,86.7927015 323.455881,86.7927015 Z M331.806992,56.0677825 L312.660543,56.0677825 C313.678971,49.4428274 316.937941,46.1303499 322.437453,46.1303499 C327.86907,46.1303499 330.99225,49.4428274 331.806992,56.0677825 L331.806992,56.0677825 Z" id="edge" fill="#032858" fill-rule="nonzero"></path>
      <path d="M147.198944,-3.99784252 C149.684259,-3.99665065 151.698707,-1.98220211 151.699898,0.503112725 L151.753642,112.651572 C151.754831,115.133808 149.743546,117.147022 147.261309,117.148212 C147.259873,117.148213 147.258436,117.148213 147.257,117.148212 C144.771685,117.14702 142.757237,115.132572 142.756046,112.647257 L142.702302,0.498797774 C142.701113,-1.98343855 144.712399,-3.99665299 147.194635,-3.99784253 C147.196071,-3.99784321 147.197508,-3.99784321 147.198944,-3.99784252 Z" id="slash" fill="#ffe400" transform="translate(147.227972, 56.575185) rotate(26.500000) translate(-147.227972, -56.575185) "></path>
    </g>
  </g>
</svg>