<?xml version="1.0" encoding="UTF-8"?>
<svg width="113px" height="113px" viewBox="0 0 113 113" version="1.1" xmlns="http://www.w3.org/2000/svg" xmlns:xlink="http://www.w3.org/1999/xlink">
    <title>favicon</title>
    <g id="favicon" stroke="none" stroke-width="1" fill="none" fill-rule="evenodd">
        <g id="Group-2" transform="translate(17.000000, 8.000000)">
            <path d="M18.2988234,12.499107 L18.2988234,26.8909989 L37.1059475,26.8909989 L37.1059475,33.8842421 L18.2988234,33.8842421 L18.2988234,63.5801881 L18.3035491,63.9236565 C18.3665584,66.1866338 19.0596607,67.9133605 20.3828561,69.1038367 C21.5942904,70.1937617 23.1535302,70.8085121 25.0605754,70.9480879 L21.3619415,78.3745289 C18.5372889,77.958725 16.1438378,76.9124131 14.1815881,75.2355935 C11.6564817,73.0777905 10.3214652,69.8126107 10.1765387,65.4400539 L10.166013,64.999107 L10.166013,33.8842421 L0,33.8842421 L0,26.8909989 L10.166013,26.8909989 L10.166013,14.7288367 L18.2988234,12.499107 Z" id="Shape" fill="#032858" fill-rule="nonzero"></path>
            <path d="M72.4728172,32.8067253 C76.8520583,37.3022305 79.0416788,43.606078 79.0416788,51.7182679 C79.0416788,53.8525464 78.895323,55.6370902 78.6026116,57.0718993 L78.5324647,57.3968008 L43.8040646,57.3968008 L43.8784734,57.8064357 C44.4502563,60.7752825 45.5966457,62.9709921 47.3176417,64.3935645 C49.1168648,65.8807994 51.510171,66.6244168 54.4975602,66.6244168 C57.009683,66.6244168 59.0635131,66.1512057 60.6590506,65.2047835 C62.1607329,64.3140333 63.196311,63.0340476 63.765785,61.3648265 L63.8670993,61.0472862 L77.9214078,65.5089907 L77.7792412,65.924466 C76.3157144,70.047037 73.5963734,73.2041224 69.6212183,75.395722 C65.5135581,77.660375 60.4723387,78.7927015 54.4975602,78.7927015 C45.8396844,78.7927015 39.1600809,76.6148031 34.4587499,72.2590063 L46.506,48.0672848 L62.8486711,48.0677825 C62.0339286,41.4428274 58.9107489,38.1303499 53.4791321,38.1303499 C52.7323818,38.1303499 52.0269417,38.1914237 51.3628115,38.3135714 L57.3790302,26.2362848 C63.7633778,26.8407497 68.7946401,29.0308965 72.4728172,32.8067253 Z" id="edge" fill="#032858" fill-rule="nonzero"></path>
            <path d="M41.1989443,-2.42299884 C43.6842694,-2.42199536 45.6988881,-0.407709919 45.7003028,2.07761502 L45.7532371,95.0763873 C45.75465,97.5585883 43.7435738,99.5719551 41.2613729,99.5733679 C41.2599153,99.5733687 41.2584576,99.5733689 41.257,99.5733683 C38.7716749,99.5723648 36.7570562,97.5580794 36.7556416,95.0727544 L36.7027072,2.07398213 C36.7012944,-0.408218824 38.7123705,-2.42158562 41.1945714,-2.42299848 C41.1960291,-2.42299931 41.1974867,-2.42299943 41.1989443,-2.42299884 Z" id="slash" fill="#FFE400" transform="translate(41.227972, 48.575185) rotate(26.500000) translate(-41.227972, -48.575185) "></path>
        </g>
    </g>
</svg>